<svg width="24" height="24" viewBox="0 0 24 24" fill="none" xmlns="http://www.w3.org/2000/svg">
<g clip-path="url(#clip0_379_2152)">
<path fill-rule="evenodd" clip-rule="evenodd" d="M5 3C3.34315 3 2 4.34315 2 6V16C2 17.1046 2.89543 18 4 18V6C4 5.44772 4.44772 5 5 5H19C19 3.89543 18.1046 3 17 3H5ZM5 8C5 6.89543 5.89543 6 7 6H20C21.1046 6 22 6.89543 22 8V19.3333C22 20.4379 21.1046 21.3333 20 21.3333H7C5.89543 21.3333 5 20.4379 5 19.3333V8ZM20 8H7V15.848L10.8483 11.9997C11.3364 11.5115 12.1279 11.5115 12.6161 11.9997L15.857 15.2406L16.7409 14.3567C17.229 13.8686 18.0205 13.8686 18.5086 14.3567L20 15.8481V8ZM18 11C18 11.8284 17.3284 12.5 16.5 12.5C15.6716 12.5 15 11.8284 15 11C15 10.1716 15.6716 9.5 16.5 9.5C17.3284 9.5 18 10.1716 18 11Z" fill="black"/>
</g>
<defs>
<clipPath id="clip0_379_2152">
<rect width="24" height="24" fill="white"/>
</clipPath>
</defs>
</svg>
