<svg width="24" height="24" viewBox="0 0 24 24" fill="none" xmlns="http://www.w3.org/2000/svg">
<g clip-path="url(#clip0_379_2258)">
<path d="M16.2426 9.87836C16.6031 9.51788 17.1703 9.49015 17.5626 9.79517L17.6568 9.87836L19.7781 11.9997C21.926 14.1476 21.926 17.63 19.7781 19.7778C17.6899 21.866 14.3402 21.924 12.1819 19.9518L11.9999 19.7778L9.87861 17.6565C9.48808 17.266 9.48808 16.6328 9.87861 16.2423C10.2391 15.8818 10.8063 15.8541 11.1986 16.1591L11.2928 16.2423L13.4141 18.3636C14.781 19.7305 16.9971 19.7305 18.3639 18.3636C19.6819 17.0456 19.729 14.9379 18.5051 13.5635L18.3639 13.4139L16.2426 11.2926C15.852 10.902 15.852 10.2689 16.2426 9.87836ZM9.17136 9.17125C9.53185 8.81077 10.0991 8.78304 10.4914 9.08806L10.5856 9.17125L14.8282 13.4139C15.2187 13.8044 15.2187 14.4376 14.8282 14.8281C14.4677 15.1886 13.9005 15.2163 13.5082 14.9113L13.414 14.8281L9.17136 10.5855C8.78084 10.1949 8.78084 9.56178 9.17136 9.17125ZM4.22175 4.22151C6.30998 2.13329 9.6596 2.07528 11.8179 4.04749L11.9999 4.22151L14.1212 6.34283C14.5118 6.73335 14.5118 7.36652 14.1212 7.75704C13.7607 8.11753 13.1936 8.14525 12.8012 7.84023L12.707 7.75704L10.5857 5.63572C9.21888 4.26889 7.0028 4.26889 5.63597 5.63572C4.31795 6.95374 4.27087 9.06143 5.49475 10.4359L5.63597 10.5855L7.75729 12.7068C8.14781 13.0973 8.14781 13.7305 7.75729 14.121C7.3968 14.4815 6.82957 14.5092 6.43728 14.2042L6.34307 14.121L4.22175 11.9997C2.07387 9.8518 2.07387 6.36939 4.22175 4.22151Z" fill="black"/>
</g>
<defs>
<clipPath id="clip0_379_2258">
<rect width="24" height="24" fill="white"/>
</clipPath>
</defs>
</svg>
