<svg width="24" height="24" viewBox="0 0 24 24" fill="none" xmlns="http://www.w3.org/2000/svg">
<path d="M12 21C11.4477 21 11 20.5523 11 20C11 19.4872 11.386 19.0645 11.8834 19.0067L12 19H17C17.5128 19 17.9355 18.614 17.9933 18.1166L18 18V6C18 5.48715 17.614 5.06449 17.1166 5.00673L17 5H12.5C11.9477 5 11.5 4.5523 11.5 4C11.5 3.48715 11.886 3.06449 12.3834 3.00673L12.5 3H17C18.5977 3 19.9037 4.24888 19.9949 5.82372L20 6V18C20 19.5977 18.7511 20.9037 17.1763 20.9949L17 21H12ZM6.293 15.5355L3.4645 12.7071C3.074 12.3166 3.074 11.6834 3.4645 11.2929L6.293 8.4645C6.6835 8.0739 7.3166 8.0739 7.7072 8.4645C8.0977 8.855 8.0977 9.4882 7.7072 9.8787L6.5858 11L12 11C12.5523 11 13 11.4477 13 12C13 12.5523 12.5523 13 12 13L6.5858 13L7.7072 14.1213C8.0977 14.5118 8.0977 15.145 7.7072 15.5355C7.3166 15.9261 6.6835 15.9261 6.293 15.5355Z" fill="black"/>
</svg>
