<svg width="24" height="24" viewBox="0 0 24 24" fill="none" xmlns="http://www.w3.org/2000/svg">
<g clip-path="url(#clip0_379_2094)">
<path fill-rule="evenodd" clip-rule="evenodd" d="M10.5 4C6.91015 4 4 6.91015 4 10.5C4 14.0899 6.91015 17 10.5 17C14.0899 17 17 14.0899 17 10.5C17 6.91015 14.0899 4 10.5 4ZM2 10.5C2 5.80558 5.80558 2 10.5 2C15.1944 2 19 5.80558 19 10.5C19 12.4869 18.3183 14.3145 17.176 15.7618L20.8284 19.4142C21.2189 19.8047 21.2189 20.4379 20.8284 20.8284C20.4379 21.2189 19.8047 21.2189 19.4142 20.8284L15.7618 17.176C14.3145 18.3183 12.4869 19 10.5 19C5.80558 19 2 15.1944 2 10.5ZM9.5 7C9.5 6.44772 9.94772 6 10.5 6C12.9853 6 15 8.01472 15 10.5C15 11.0523 14.5523 11.5 14 11.5C13.4477 11.5 13 11.0523 13 10.5C13 9.11929 11.8807 8 10.5 8C9.94772 8 9.5 7.55228 9.5 7Z" fill="black"/>
</g>
<defs>
<clipPath id="clip0_379_2094">
<rect width="24" height="24" fill="white"/>
</clipPath>
</defs>
</svg>
