<svg width="25" height="25" viewBox="0 0 25 25" fill="none" xmlns="http://www.w3.org/2000/svg">
<path fill-rule="evenodd" clip-rule="evenodd" d="M10.8316 2.20249C11.6728 2.12677 12.5054 2.39618 13.1375 2.942L13.2913 3.08417L21.3325 11.0454C22.4887 12.1899 22.5349 14.0172 21.4713 15.2164L21.3325 15.363L15.5177 21.1199C14.3617 22.2644 12.516 22.3102 11.3047 21.2572L11.1567 21.1199L3.11538 13.1587C2.51803 12.5672 2.19408 11.7615 2.21294 10.9313L2.22483 10.7234L2.70941 5.44632C2.83856 4.03972 3.92271 2.9131 5.31764 2.70422L5.5013 2.68224L10.8316 2.20249ZM8.24827 8.16694C7.44542 8.96179 7.44542 10.2505 8.24827 11.0454C9.05113 11.8402 10.3528 11.8402 11.1557 11.0454C11.9586 10.2505 11.9586 8.96179 11.1557 8.16694C10.3528 7.37208 9.05113 7.37208 8.24827 8.16694Z" fill="black"/>
</svg>
