<svg width="24" height="25" viewBox="0 0 24 25" fill="none" xmlns="http://www.w3.org/2000/svg">
<path fill-rule="evenodd" clip-rule="evenodd" d="M12 2.01465C6.47715 2.01465 2 6.52418 2 12.087C2 17.6497 6.47715 22.1593 12 22.1593C17.5228 22.1593 22 17.6497 22 12.087C22 6.52418 17.5228 2.01465 12 2.01465ZM8.5 8.56166C8.5 6.61468 10.067 5.03635 12 5.03635C13.933 5.03635 15.5 6.61468 15.5 8.56166C15.5 10.5086 13.933 12.087 12 12.087C10.067 12.087 8.5 10.5086 8.5 8.56166ZM5.2782 16.458C6.92693 15.1004 9.33472 14.1014 12 14.1014C14.6653 14.1014 17.0731 15.1004 18.7218 16.458C17.2969 18.6766 14.8187 20.1448 12 20.1448C9.18136 20.1448 6.70318 18.6766 5.2782 16.458Z" fill="black"/>
</svg>
