<svg width="24" height="24" viewBox="0 0 24 24" fill="none" xmlns="http://www.w3.org/2000/svg">
<g clip-path="url(#clip0_379_2146)">
<path d="M12 2C17.5228 2 22 6.47715 22 12C22 17.5228 17.5228 22 12 22C6.47715 22 2 17.5228 2 12C2 6.47715 6.47715 2 12 2ZM8.96449 8.65037L8.9105 9.14915L8.88086 9.48324L8.83871 10.0822L8.81508 10.5425L8.79735 11.0482L8.78752 11.5966V12.1752L8.79736 12.7238L8.81511 13.2298L8.83876 13.6902L8.88094 14.2893L8.95238 15.0194C8.95664 15.0561 8.96072 15.0904 8.96459 15.122C9.06102 15.9106 9.88271 16.3875 10.6162 16.0757L11.0723 15.8742L11.723 15.5651L12.1135 15.3692L12.543 15.145L13.0086 14.8922L13.5071 14.6102L14.0003 14.3196C14.0791 14.2722 14.1561 14.2255 14.2314 14.1793L14.6618 13.9107L15.0488 13.6603L15.3912 13.4312L16.0443 12.971L16.2213 12.8397C16.8591 12.3596 16.8553 11.4085 16.22 10.9315L15.8141 10.6352L15.5391 10.4423L15.2181 10.224L14.6542 9.85574L14.2255 9.58786L13.7566 9.30583L13.2573 9.01752L12.7787 8.7525L12.3324 8.51526L11.9221 8.30557L11.3821 8.04223L10.9433 7.83964L10.713 7.73796C10.679 7.72323 10.6473 7.7096 10.6179 7.69706C9.88591 7.38489 9.0612 7.85908 8.96449 8.65037Z" fill="black"/>
</g>
<defs>
<clipPath id="clip0_379_2146">
<rect width="24" height="24" fill="white"/>
</clipPath>
</defs>
</svg>
