<svg width="25" height="25" viewBox="0 0 25 25" fill="none" xmlns="http://www.w3.org/2000/svg">
<path fill-rule="evenodd" clip-rule="evenodd" d="M19.5701 6.11847V7.15179C20.7078 7.15179 21.6301 8.06662 21.6301 9.19512V19.4118C21.6301 20.5403 20.7078 21.4551 19.5701 21.4551H5.15009C4.01238 21.4551 3.09009 20.5403 3.09009 19.4118V9.19512C3.09009 8.12793 3.94996 7.15912 4.95768 6.87353L16.2877 3.66257C17.9326 3.19639 19.5701 4.42153 19.5701 6.11847ZM15.9651 12.771C15.1118 12.771 14.4201 13.4571 14.4201 14.3035C14.4201 15.1498 15.1118 15.836 15.9651 15.836C16.8183 15.836 17.5101 15.1498 17.5101 14.3035C17.5101 13.4571 16.8183 12.771 15.9651 12.771ZM17.5101 6.11847C17.5101 5.80736 17.2349 5.57555 16.9356 5.61089L16.8536 5.62729L11.4744 7.15179H17.5101V6.11847Z" fill="black"/>
</svg>
